<?xml version="1.0" ?><svg enable-background="new 0 0 32 32" version="1.1" viewBox="0 0 32 32" xml:space="preserve" xmlns="http://www.w3.org/2000/svg" xmlns:xlink="http://www.w3.org/1999/xlink"><g id="Outline_Red"><circle cx="4.99" cy="15.97" fill="#F33052" r="1.64"/><circle cx="27.01" cy="9.06" fill="#F33052" r="1.64"/><circle cx="10.53" cy="9.92" fill="#F33052" r="1.64"/><circle cx="19.55" cy="14.62" fill="#F33052" r="1.64"/><polygon fill="#F33052" points="5.34,15.89 4.63,15.18 10.56,9.25 19.51,14.13 26.53,8.67 27.14,9.46 19.6,15.32 10.74,10.49  "/><path d="M28.65,30.98l-10.09-6.96H2.47C1.11,24.02,0,22.91,0,21.55V3.49c0-1.36,1.11-2.47,2.47-2.47h27.06   c1.36,0,2.47,1.11,2.47,2.47v18.06c0,1.36-1.11,2.47-2.47,2.47h-1.01L28.65,30.98z M2.47,2.02C1.66,2.02,1,2.68,1,3.49v18.06   c0,0.81,0.66,1.47,1.47,1.47h16.4L19,23.11l8.62,5.94l-0.11-6.03h2.03c0.81,0,1.47-0.66,1.47-1.47V3.49c0-0.81-0.66-1.47-1.47-1.47   H2.47z"/></g></svg>